<svg width="58" height="58" viewBox="0 0 58 58" fill="none" xmlns="http://www.w3.org/2000/svg">
<path d="M19.3333 41.0833L28.9999 50.75L38.6666 41.0833" stroke="white" stroke-width="2" stroke-linecap="round" stroke-linejoin="round"/>
<path d="M29 29V50.75" stroke="white" stroke-width="2" stroke-linecap="round" stroke-linejoin="round"/>
<path d="M50.46 43.7175C52.5611 42.2401 54.1366 40.1316 54.9581 37.698C55.7796 35.2644 55.8043 32.6323 55.0285 30.1838C54.2527 27.7352 52.7169 25.5976 50.6439 24.081C48.5709 22.5645 46.0685 21.748 43.5 21.75H40.455C39.7282 18.9174 38.3682 16.2865 36.4775 14.0555C34.5868 11.8246 32.2145 10.0516 29.5394 8.87004C26.8643 7.68852 23.9561 7.12925 21.0335 7.23435C18.111 7.33945 15.2504 8.10618 12.6671 9.4768C10.0838 10.8474 7.84506 12.7862 6.11947 15.1473C4.39388 17.5083 3.2264 20.23 2.7049 23.1076C2.18341 25.9851 2.3215 28.9435 3.10877 31.7599C3.89605 34.5763 5.312 37.1775 7.25002 39.3675" stroke="white" stroke-width="2" stroke-linecap="round" stroke-linejoin="round"/>
</svg>
