<svg width="53" height="53" viewBox="0 0 53 53" fill="none" xmlns="http://www.w3.org/2000/svg">
<path d="M39.75 46.375C43.4089 46.375 46.375 43.4089 46.375 39.75C46.375 36.0911 43.4089 33.125 39.75 33.125C36.0911 33.125 33.125 36.0911 33.125 39.75C33.125 43.4089 36.0911 46.375 39.75 46.375Z" stroke="white" stroke-width="2" stroke-linecap="round" stroke-linejoin="round"/>
<path d="M13.25 19.875C16.9089 19.875 19.875 16.9089 19.875 13.25C19.875 9.59111 16.9089 6.625 13.25 6.625C9.59111 6.625 6.625 9.59111 6.625 13.25C6.625 16.9089 9.59111 19.875 13.25 19.875Z" stroke="white" stroke-width="2" stroke-linecap="round" stroke-linejoin="round"/>
<path d="M28.7083 13.25H35.3333C36.5046 13.25 37.628 13.7153 38.4563 14.5436C39.2846 15.3719 39.7499 16.4953 39.7499 17.6667V33.125" stroke="white" stroke-width="2" stroke-linecap="round" stroke-linejoin="round"/>
<path d="M13.25 19.875V46.375" stroke="white" stroke-width="2" stroke-linecap="round" stroke-linejoin="round"/>
</svg>
