<svg width="53" height="53" viewBox="0 0 53 53" fill="none" xmlns="http://www.w3.org/2000/svg">
<path d="M33.2354 11.0417C35.3923 11.4625 37.3746 12.5174 38.9286 14.0714C40.4826 15.6254 41.5375 17.6077 41.9583 19.7646M33.2354 2.20837C37.7167 2.70621 41.8956 4.71301 45.0858 7.89927C48.2761 11.0855 50.2881 15.2619 50.7916 19.7425M48.5833 37.365V43.99C48.5858 44.6051 48.4598 45.2138 48.2134 45.7773C47.967 46.3409 47.6057 46.8467 47.1525 47.2625C46.6993 47.6783 46.1642 47.9948 45.5816 48.1918C44.999 48.3889 44.3817 48.4621 43.7691 48.4067C36.9737 47.6683 30.4462 45.3463 24.7112 41.6271C19.3755 38.2366 14.8517 33.7128 11.4612 28.3771C7.72907 22.616 5.40649 16.0568 4.68162 9.23087C4.62644 8.6202 4.69901 8.00472 4.89473 7.42363C5.09044 6.84254 5.40501 6.30856 5.8184 5.8557C6.23179 5.40285 6.73494 5.04102 7.29583 4.79328C7.85671 4.54553 8.46304 4.41728 9.0762 4.41671H15.7012C16.7729 4.40616 17.8119 4.78567 18.6245 5.48451C19.4371 6.18334 19.9679 7.15382 20.1179 8.21504C20.3975 10.3352 20.9161 12.4169 21.6637 14.4205C21.9608 15.2109 22.0251 16.0699 21.849 16.8957C21.6729 17.7216 21.2637 18.4796 20.67 19.08L17.8654 21.8846C21.0091 27.4133 25.5867 31.9909 31.1154 35.1346L33.92 32.33C34.5204 31.7363 35.2784 31.3271 36.1043 31.151C36.9301 30.9749 37.7891 31.0392 38.5795 31.3363C40.5831 32.0839 42.6648 32.6025 44.785 32.8821C45.8577 33.0335 46.8374 33.5738 47.5377 34.4003C48.238 35.2269 48.6102 36.282 48.5833 37.365Z" stroke="black" stroke-width="2" stroke-linecap="round" stroke-linejoin="round"/>
</svg>
